<svg width="1132" xmlns:xlink="http://www.w3.org/1999/xlink" xmlns="http://www.w3.org/2000/svg" viewBox="0 0 1132 804" xmlns:ev="http://www.w3.org/2001/xml-events" height="804"><defs/><g id="page1" transform="translate(5.5,5.5)"><rect width="1123" x="0" fill="none" y="0" height="794"/><path fill="#ffffff" id="shape1" stroke-width="1" stroke="#101843" transform="translate(189.000000,151.000000)" d="M704.0,509.4L704.0,.0L.0,.0L.0,509.4L704.0,509.4z" fill-rule="nonzero"/><path fill="#ffffff" id="shape2" stroke-width="1" stroke="#101843" transform="translate(251.000000,430.000000)" d="M571.0,168.0L571.0,11.0C571.0,4.9,566.1,.0,560.0,.0L11.0,.0C4.9,.0,.0,4.9,.0,11.0L.0,168.0C.0,174.1,4.9,179.0,11.0,179.0L560.0,179.0C566.1,179.0,571.0,174.1,571.0,168.0z" fill-rule="nonzero"/><g id="shape3" transform="translate(302.500000,518.000000)"><path fill="#ffffff" stroke-width="1" stroke="#101843" d="M113.0,64.0L113.0,11.0C113.0,4.9,108.1,.0,102.0,.0L11.0,.0C4.9,.0,.0,4.9,.0,11.0L.0,64.0C.0,70.1,4.9,75.0,11.0,75.0L102.0,75.0C108.1,75.0,113.0,70.1,113.0,64.0z" fill-rule="nonzero"/><text xml:space="preserve" style="fill:#000000;font-family:Fira Code Retina;font-size:15.00pt"><tspan x="20.5" y="42.8">KPGS-1</tspan></text></g><g id="shape4" transform="translate(444.500000,518.000000)"><path fill="#ffffff" stroke-width="1" stroke="#101843" d="M113.0,64.0L113.0,11.0C113.0,4.9,108.1,.0,102.0,.0L11.0,.0C4.9,.0,.0,4.9,.0,11.0L.0,64.0C.0,70.1,4.9,75.0,11.0,75.0L102.0,75.0C108.1,75.0,113.0,70.1,113.0,64.0z" fill-rule="nonzero"/><text xml:space="preserve" style="fill:#000000;font-family:Fira Code Retina;font-size:15.00pt"><tspan x="20.5" y="42.8">KPGS-2</tspan></text></g><g id="shape5" transform="translate(666.500000,518.000000)"><path fill="#ffffff" stroke-width="1" stroke="#101843" d="M113.0,64.0L113.0,11.0C113.0,4.9,108.1,.0,102.0,.0L11.0,.0C4.9,.0,.0,4.9,.0,11.0L.0,64.0C.0,70.1,4.9,75.0,11.0,75.0L102.0,75.0C108.1,75.0,113.0,70.1,113.0,64.0z" fill-rule="nonzero"/><text xml:space="preserve" style="fill:#000000;font-family:Fira Code Retina;font-size:15.00pt"><tspan x="20.5" y="42.8">KPGS-n</tspan></text></g><g id="shape6" transform="translate(379.000000,265.000000)"><path fill="#ffffff" stroke-width="1" stroke="#101843" d="M282.0,75.0L282.0,.0L.0,.0L.0,75.0L282.0,75.0z" fill-rule="nonzero"/><text xml:space="preserve" style="fill:#000000;font-family:Fira Code Retina;font-size:15.00pt"><tspan x="81.0" y="42.8">Prometheus</tspan></text></g><g id="shape7" transform="translate(451.500000,617.428969)"><text xml:space="preserve" style="fill:#000000;font-family:Fira Code Retina;font-size:15.00pt"><tspan x="25.5" y="28.0">KPGS应用集群</tspan></text></g><g id="shape8" transform="translate(529.000000,534.000000)"><text xml:space="preserve" style="fill:#000000;font-family:Fira Code Retina;font-size:15.00pt"><tspan x="71.5" y="26.8">...</tspan></text></g><g id="shape9" transform="translate(379.000000,170.000000)"><path fill="#ffffff" stroke-width="1" stroke="#101843" d="M282.0,75.0L282.0,.0L.0,.0L.0,75.0L282.0,75.0z" fill-rule="nonzero"/><text xml:space="preserve" style="fill:#000000;font-family:Fira Code Retina;font-size:15.00pt"><tspan x="99.0" y="42.8">Grafana</tspan></text></g><g id="shape10" transform="translate(520.000000,340.000000)"><path fill="none" stroke-width="1" stroke="#191919" d="M.0,.0L.0,84.0"/><path stroke-linecap="round" fill="#191919" stroke-width="1" stroke="#191919" d="M3.0,84.0L.0,90.0L-3.0,84.0L3.0,84.0"/></g><g id="shape11" transform="translate(520.000000,430.000000)"><path fill="none" stroke-width="1" stroke="#191919" d="M.0,.0L-155.7,85.1"/><path stroke-linecap="round" fill="#191919" stroke-width="1" stroke="#191919" d="M-154.3,87.8L-161.0,88.0L-157.2,82.5L-154.3,87.8"/></g><g id="shape12" transform="translate(520.000000,430.000000)"><path fill="none" stroke-width="1" stroke="#191919" d="M.0,.0L-17.7,82.1"/><path stroke-linecap="round" fill="#191919" stroke-width="1" stroke="#191919" d="M-14.8,82.8L-19.0,88.0L-20.7,81.5L-14.8,82.8"/></g><g id="shape13" transform="translate(520.000000,430.000000)"><path fill="none" stroke-width="1" stroke="#191919" d="M.0,.0L197.5,85.6"/><path stroke-linecap="round" fill="#191919" stroke-width="1" stroke="#191919" d="M198.7,82.9L203.0,88.0L196.3,88.4L198.7,82.9"/></g><g id="shape14" transform="translate(520.000000,245.000000)"><path fill="none" stroke-width="1" stroke="#191919" d="M.0,.0L.0,14.0"/><path stroke-linecap="round" fill="#191919" stroke-width="1" stroke="#191919" d="M3.0,14.0L.0,20.0L-3.0,14.0L3.0,14.0"/></g><g id="shape15" transform="translate(379.000000,368.500000)"><path fill="#ffffff" stroke-width="1" stroke="#101843" d="M282.0,26.0L282.0,11.0C282.0,4.9,277.1,.0,271.0,.0L11.0,.0C4.9,.0,.0,4.9,.0,11.0L.0,26.0C.0,32.1,4.9,37.0,11.0,37.0L271.0,37.0C277.1,37.0,282.0,32.1,282.0,26.0z" fill-rule="nonzero"/><text xml:space="preserve" style="fill:#000000;font-family:Fira Code Retina;font-size:15.00pt"><tspan x="99.0" y="23.8">Service</tspan></text></g><g id="shape16" transform="translate(705.000000,324.000000)"><path fill="#ffffff" stroke-width="1" stroke="#101843" d="M140.0,59.0L140.0,11.0C140.0,4.9,135.1,.0,129.0,.0L11.0,.0C4.9,.0,.0,4.9,.0,11.0L.0,59.0C.0,65.1,4.9,70.0,11.0,70.0L129.0,70.0C135.1,70.0,140.0,65.1,140.0,59.0z" fill-rule="nonzero"/><text xml:space="preserve" style="fill:#000000;font-family:Fira Code Retina;font-size:15.00pt"><tspan x="52.0" y="40.3">HPA</tspan></text></g><g id="shape17" transform="translate(775.000000,394.000000)"><path fill="none" stroke-width="1" stroke="#191919" d="M.0,.0L.0,30.0"/><path stroke-linecap="round" fill="#191919" stroke-width="1" stroke="#191919" d="M3.0,30.0L.0,36.0L-3.0,30.0L3.0,30.0"/></g></g></svg>